<svg width="324" height="189" viewBox="0 0 324 189" fill="none" xmlns="http://www.w3.org/2000/svg">
<path d="M259.771 172H231.971L207.526 151H235.326L259.771 172Z" fill="white"/>
<path d="M292.365 172H264.564L240.119 151H267.92L292.365 172Z" fill="white"/>
<path d="M324 172H296.199L271.754 151H299.555L324 172Z" fill="white"/>
<path d="M232.93 148.667H205.129L180.684 127.667H208.484L232.93 148.667Z" fill="white"/>
<path d="M265.523 148.667H237.723L213.277 127.667H241.078L265.523 148.667Z" fill="white"/>
<path d="M297.158 148.667H269.358L244.912 127.667H272.713L297.158 148.667Z" fill="white"/>
<path d="M206.088 125.333H178.287L153.842 104.333H181.642L206.088 125.333Z" fill="white"/>
<path d="M238.681 125.333H210.881L186.435 104.333H214.236L238.681 125.333Z" fill="white"/>
<path d="M270.316 125.333H242.516L218.07 104.333H245.871L270.316 125.333Z" fill="white"/>
<path d="M179.246 102H151.445L127 81H154.8L179.246 102Z" fill="white"/>
<path d="M211.839 102H184.039L159.594 81H187.394L211.839 102Z" fill="white"/>
<path d="M243.474 102H215.674L191.229 81H219.029L243.474 102Z" fill="white"/>
<path d="M123.812 112.355L35.9454 189H0L123.812 81L230.649 174.194H324V181V189H211.678L123.812 112.355Z" fill="white"/>
<rect x="101" y="144" width="20" height="20" fill="white"/>
<rect x="126" y="144" width="21.4286" height="20" fill="white"/>
<rect x="101" y="169" width="20" height="20" fill="white"/>
<rect x="126" y="169" width="21.4286" height="20" fill="white"/>
<path d="M202 79C202 66.253 198.915 53.6952 193.01 42.3989C187.104 31.1025 178.552 21.4029 168.085 14.1282C157.618 6.85356 145.545 2.21983 132.899 0.622615C120.252 -0.974598 107.407 0.512145 95.4596 4.95592C83.5122 9.3997 72.8176 16.6685 64.2887 26.1419C55.7598 35.6152 49.6499 47.0117 46.4806 59.3585C43.3114 71.7053 43.1769 84.6356 46.0886 97.0456C49.0004 109.456 54.8719 120.977 63.2019 130.625L123 79H202Z" fill="white"/>
</svg>
